G04 #@! TF.GenerationSoftware,KiCad,Pcbnew,(5.0.2)-1*
G04 #@! TF.CreationDate,2019-03-11T08:48:57-06:00*
G04 #@! TF.ProjectId,led_pi_board,6c65645f-7069-45f6-926f-6172642e6b69,rev?*
G04 #@! TF.SameCoordinates,Original*
G04 #@! TF.FileFunction,Paste,Top*
G04 #@! TF.FilePolarity,Positive*
%FSLAX46Y46*%
G04 Gerber Fmt 4.6, Leading zero omitted, Abs format (unit mm)*
G04 Created by KiCad (PCBNEW (5.0.2)-1) date 3/11/2019 8:48:57 AM*
%MOMM*%
%LPD*%
G01*
G04 APERTURE LIST*
%ADD10R,2.500000X4.000000*%
%ADD11R,1.524000X0.609600*%
%ADD12R,0.280000X1.470000*%
%ADD13C,0.100000*%
%ADD14C,0.875000*%
%ADD15R,0.355600X1.473200*%
%ADD16R,1.200000X0.900000*%
%ADD17R,1.220000X0.650000*%
%ADD18C,0.975000*%
G04 APERTURE END LIST*
D10*
G04 #@! TO.C,C3*
X114420000Y-128050000D03*
X108120000Y-128050000D03*
G04 #@! TD*
D11*
G04 #@! TO.C,U6*
X119556800Y-116210000D03*
X125043200Y-116210000D03*
X119556800Y-117480000D03*
X119556800Y-118750000D03*
X125043200Y-117480000D03*
X125043200Y-118750000D03*
X119556800Y-120020000D03*
X125043200Y-120020000D03*
G04 #@! TD*
D12*
G04 #@! TO.C,U5*
X152000000Y-116450000D03*
X152500000Y-116450000D03*
X153000000Y-116450000D03*
X153500000Y-116450000D03*
X154000000Y-116450000D03*
X154000000Y-120750000D03*
X153500000Y-120750000D03*
X153000000Y-120750000D03*
X152500000Y-120750000D03*
X152000000Y-120750000D03*
G04 #@! TD*
D13*
G04 #@! TO.C,C4*
G36*
X151452691Y-111676053D02*
X151473926Y-111679203D01*
X151494750Y-111684419D01*
X151514962Y-111691651D01*
X151534368Y-111700830D01*
X151552781Y-111711866D01*
X151570024Y-111724654D01*
X151585930Y-111739070D01*
X151600346Y-111754976D01*
X151613134Y-111772219D01*
X151624170Y-111790632D01*
X151633349Y-111810038D01*
X151640581Y-111830250D01*
X151645797Y-111851074D01*
X151648947Y-111872309D01*
X151650000Y-111893750D01*
X151650000Y-112406250D01*
X151648947Y-112427691D01*
X151645797Y-112448926D01*
X151640581Y-112469750D01*
X151633349Y-112489962D01*
X151624170Y-112509368D01*
X151613134Y-112527781D01*
X151600346Y-112545024D01*
X151585930Y-112560930D01*
X151570024Y-112575346D01*
X151552781Y-112588134D01*
X151534368Y-112599170D01*
X151514962Y-112608349D01*
X151494750Y-112615581D01*
X151473926Y-112620797D01*
X151452691Y-112623947D01*
X151431250Y-112625000D01*
X150993750Y-112625000D01*
X150972309Y-112623947D01*
X150951074Y-112620797D01*
X150930250Y-112615581D01*
X150910038Y-112608349D01*
X150890632Y-112599170D01*
X150872219Y-112588134D01*
X150854976Y-112575346D01*
X150839070Y-112560930D01*
X150824654Y-112545024D01*
X150811866Y-112527781D01*
X150800830Y-112509368D01*
X150791651Y-112489962D01*
X150784419Y-112469750D01*
X150779203Y-112448926D01*
X150776053Y-112427691D01*
X150775000Y-112406250D01*
X150775000Y-111893750D01*
X150776053Y-111872309D01*
X150779203Y-111851074D01*
X150784419Y-111830250D01*
X150791651Y-111810038D01*
X150800830Y-111790632D01*
X150811866Y-111772219D01*
X150824654Y-111754976D01*
X150839070Y-111739070D01*
X150854976Y-111724654D01*
X150872219Y-111711866D01*
X150890632Y-111700830D01*
X150910038Y-111691651D01*
X150930250Y-111684419D01*
X150951074Y-111679203D01*
X150972309Y-111676053D01*
X150993750Y-111675000D01*
X151431250Y-111675000D01*
X151452691Y-111676053D01*
X151452691Y-111676053D01*
G37*
D14*
X151212500Y-112150000D03*
D13*
G36*
X153027691Y-111676053D02*
X153048926Y-111679203D01*
X153069750Y-111684419D01*
X153089962Y-111691651D01*
X153109368Y-111700830D01*
X153127781Y-111711866D01*
X153145024Y-111724654D01*
X153160930Y-111739070D01*
X153175346Y-111754976D01*
X153188134Y-111772219D01*
X153199170Y-111790632D01*
X153208349Y-111810038D01*
X153215581Y-111830250D01*
X153220797Y-111851074D01*
X153223947Y-111872309D01*
X153225000Y-111893750D01*
X153225000Y-112406250D01*
X153223947Y-112427691D01*
X153220797Y-112448926D01*
X153215581Y-112469750D01*
X153208349Y-112489962D01*
X153199170Y-112509368D01*
X153188134Y-112527781D01*
X153175346Y-112545024D01*
X153160930Y-112560930D01*
X153145024Y-112575346D01*
X153127781Y-112588134D01*
X153109368Y-112599170D01*
X153089962Y-112608349D01*
X153069750Y-112615581D01*
X153048926Y-112620797D01*
X153027691Y-112623947D01*
X153006250Y-112625000D01*
X152568750Y-112625000D01*
X152547309Y-112623947D01*
X152526074Y-112620797D01*
X152505250Y-112615581D01*
X152485038Y-112608349D01*
X152465632Y-112599170D01*
X152447219Y-112588134D01*
X152429976Y-112575346D01*
X152414070Y-112560930D01*
X152399654Y-112545024D01*
X152386866Y-112527781D01*
X152375830Y-112509368D01*
X152366651Y-112489962D01*
X152359419Y-112469750D01*
X152354203Y-112448926D01*
X152351053Y-112427691D01*
X152350000Y-112406250D01*
X152350000Y-111893750D01*
X152351053Y-111872309D01*
X152354203Y-111851074D01*
X152359419Y-111830250D01*
X152366651Y-111810038D01*
X152375830Y-111790632D01*
X152386866Y-111772219D01*
X152399654Y-111754976D01*
X152414070Y-111739070D01*
X152429976Y-111724654D01*
X152447219Y-111711866D01*
X152465632Y-111700830D01*
X152485038Y-111691651D01*
X152505250Y-111684419D01*
X152526074Y-111679203D01*
X152547309Y-111676053D01*
X152568750Y-111675000D01*
X153006250Y-111675000D01*
X153027691Y-111676053D01*
X153027691Y-111676053D01*
G37*
D14*
X152787500Y-112150000D03*
G04 #@! TD*
D15*
G04 #@! TO.C,U4*
X148771000Y-114429000D03*
X148136000Y-114429000D03*
X147475600Y-114429000D03*
X146815200Y-114429000D03*
X146180200Y-114429000D03*
X145519800Y-114429000D03*
X144884800Y-114429000D03*
X144224400Y-114429000D03*
X143564000Y-114429000D03*
X142929000Y-114429000D03*
X142929000Y-120271000D03*
X143564000Y-120271000D03*
X144224400Y-120271000D03*
X144884800Y-120271000D03*
X145519800Y-120271000D03*
X146180200Y-120271000D03*
X146815200Y-120271000D03*
X147475600Y-120271000D03*
X148136000Y-120271000D03*
X148771000Y-120271000D03*
G04 #@! TD*
G04 #@! TO.C,U3*
X140171000Y-114429000D03*
X139536000Y-114429000D03*
X138875600Y-114429000D03*
X138215200Y-114429000D03*
X137580200Y-114429000D03*
X136919800Y-114429000D03*
X136284800Y-114429000D03*
X135624400Y-114429000D03*
X134964000Y-114429000D03*
X134329000Y-114429000D03*
X134329000Y-120271000D03*
X134964000Y-120271000D03*
X135624400Y-120271000D03*
X136284800Y-120271000D03*
X136919800Y-120271000D03*
X137580200Y-120271000D03*
X138215200Y-120271000D03*
X138875600Y-120271000D03*
X139536000Y-120271000D03*
X140171000Y-120271000D03*
G04 #@! TD*
G04 #@! TO.C,U2*
X132671000Y-114429000D03*
X132036000Y-114429000D03*
X131375600Y-114429000D03*
X130715200Y-114429000D03*
X130080200Y-114429000D03*
X129419800Y-114429000D03*
X128784800Y-114429000D03*
X128124400Y-114429000D03*
X127464000Y-114429000D03*
X126829000Y-114429000D03*
X126829000Y-120271000D03*
X127464000Y-120271000D03*
X128124400Y-120271000D03*
X128784800Y-120271000D03*
X129419800Y-120271000D03*
X130080200Y-120271000D03*
X130715200Y-120271000D03*
X131375600Y-120271000D03*
X132036000Y-120271000D03*
X132671000Y-120271000D03*
G04 #@! TD*
D16*
G04 #@! TO.C,D1*
X116600000Y-115350000D03*
X116600000Y-118650000D03*
G04 #@! TD*
D17*
G04 #@! TO.C,U1*
X120840000Y-112500000D03*
X120840000Y-113450000D03*
X120840000Y-114400000D03*
X123460000Y-114400000D03*
X123460000Y-113450000D03*
X123460000Y-112500000D03*
G04 #@! TD*
D13*
G04 #@! TO.C,D2*
G36*
X118952691Y-121026053D02*
X118973926Y-121029203D01*
X118994750Y-121034419D01*
X119014962Y-121041651D01*
X119034368Y-121050830D01*
X119052781Y-121061866D01*
X119070024Y-121074654D01*
X119085930Y-121089070D01*
X119100346Y-121104976D01*
X119113134Y-121122219D01*
X119124170Y-121140632D01*
X119133349Y-121160038D01*
X119140581Y-121180250D01*
X119145797Y-121201074D01*
X119148947Y-121222309D01*
X119150000Y-121243750D01*
X119150000Y-121756250D01*
X119148947Y-121777691D01*
X119145797Y-121798926D01*
X119140581Y-121819750D01*
X119133349Y-121839962D01*
X119124170Y-121859368D01*
X119113134Y-121877781D01*
X119100346Y-121895024D01*
X119085930Y-121910930D01*
X119070024Y-121925346D01*
X119052781Y-121938134D01*
X119034368Y-121949170D01*
X119014962Y-121958349D01*
X118994750Y-121965581D01*
X118973926Y-121970797D01*
X118952691Y-121973947D01*
X118931250Y-121975000D01*
X118493750Y-121975000D01*
X118472309Y-121973947D01*
X118451074Y-121970797D01*
X118430250Y-121965581D01*
X118410038Y-121958349D01*
X118390632Y-121949170D01*
X118372219Y-121938134D01*
X118354976Y-121925346D01*
X118339070Y-121910930D01*
X118324654Y-121895024D01*
X118311866Y-121877781D01*
X118300830Y-121859368D01*
X118291651Y-121839962D01*
X118284419Y-121819750D01*
X118279203Y-121798926D01*
X118276053Y-121777691D01*
X118275000Y-121756250D01*
X118275000Y-121243750D01*
X118276053Y-121222309D01*
X118279203Y-121201074D01*
X118284419Y-121180250D01*
X118291651Y-121160038D01*
X118300830Y-121140632D01*
X118311866Y-121122219D01*
X118324654Y-121104976D01*
X118339070Y-121089070D01*
X118354976Y-121074654D01*
X118372219Y-121061866D01*
X118390632Y-121050830D01*
X118410038Y-121041651D01*
X118430250Y-121034419D01*
X118451074Y-121029203D01*
X118472309Y-121026053D01*
X118493750Y-121025000D01*
X118931250Y-121025000D01*
X118952691Y-121026053D01*
X118952691Y-121026053D01*
G37*
D14*
X118712500Y-121500000D03*
D13*
G36*
X120527691Y-121026053D02*
X120548926Y-121029203D01*
X120569750Y-121034419D01*
X120589962Y-121041651D01*
X120609368Y-121050830D01*
X120627781Y-121061866D01*
X120645024Y-121074654D01*
X120660930Y-121089070D01*
X120675346Y-121104976D01*
X120688134Y-121122219D01*
X120699170Y-121140632D01*
X120708349Y-121160038D01*
X120715581Y-121180250D01*
X120720797Y-121201074D01*
X120723947Y-121222309D01*
X120725000Y-121243750D01*
X120725000Y-121756250D01*
X120723947Y-121777691D01*
X120720797Y-121798926D01*
X120715581Y-121819750D01*
X120708349Y-121839962D01*
X120699170Y-121859368D01*
X120688134Y-121877781D01*
X120675346Y-121895024D01*
X120660930Y-121910930D01*
X120645024Y-121925346D01*
X120627781Y-121938134D01*
X120609368Y-121949170D01*
X120589962Y-121958349D01*
X120569750Y-121965581D01*
X120548926Y-121970797D01*
X120527691Y-121973947D01*
X120506250Y-121975000D01*
X120068750Y-121975000D01*
X120047309Y-121973947D01*
X120026074Y-121970797D01*
X120005250Y-121965581D01*
X119985038Y-121958349D01*
X119965632Y-121949170D01*
X119947219Y-121938134D01*
X119929976Y-121925346D01*
X119914070Y-121910930D01*
X119899654Y-121895024D01*
X119886866Y-121877781D01*
X119875830Y-121859368D01*
X119866651Y-121839962D01*
X119859419Y-121819750D01*
X119854203Y-121798926D01*
X119851053Y-121777691D01*
X119850000Y-121756250D01*
X119850000Y-121243750D01*
X119851053Y-121222309D01*
X119854203Y-121201074D01*
X119859419Y-121180250D01*
X119866651Y-121160038D01*
X119875830Y-121140632D01*
X119886866Y-121122219D01*
X119899654Y-121104976D01*
X119914070Y-121089070D01*
X119929976Y-121074654D01*
X119947219Y-121061866D01*
X119965632Y-121050830D01*
X119985038Y-121041651D01*
X120005250Y-121034419D01*
X120026074Y-121029203D01*
X120047309Y-121026053D01*
X120068750Y-121025000D01*
X120506250Y-121025000D01*
X120527691Y-121026053D01*
X120527691Y-121026053D01*
G37*
D14*
X120287500Y-121500000D03*
G04 #@! TD*
D13*
G04 #@! TO.C,C2*
G36*
X117040191Y-112376053D02*
X117061426Y-112379203D01*
X117082250Y-112384419D01*
X117102462Y-112391651D01*
X117121868Y-112400830D01*
X117140281Y-112411866D01*
X117157524Y-112424654D01*
X117173430Y-112439070D01*
X117187846Y-112454976D01*
X117200634Y-112472219D01*
X117211670Y-112490632D01*
X117220849Y-112510038D01*
X117228081Y-112530250D01*
X117233297Y-112551074D01*
X117236447Y-112572309D01*
X117237500Y-112593750D01*
X117237500Y-113106250D01*
X117236447Y-113127691D01*
X117233297Y-113148926D01*
X117228081Y-113169750D01*
X117220849Y-113189962D01*
X117211670Y-113209368D01*
X117200634Y-113227781D01*
X117187846Y-113245024D01*
X117173430Y-113260930D01*
X117157524Y-113275346D01*
X117140281Y-113288134D01*
X117121868Y-113299170D01*
X117102462Y-113308349D01*
X117082250Y-113315581D01*
X117061426Y-113320797D01*
X117040191Y-113323947D01*
X117018750Y-113325000D01*
X116581250Y-113325000D01*
X116559809Y-113323947D01*
X116538574Y-113320797D01*
X116517750Y-113315581D01*
X116497538Y-113308349D01*
X116478132Y-113299170D01*
X116459719Y-113288134D01*
X116442476Y-113275346D01*
X116426570Y-113260930D01*
X116412154Y-113245024D01*
X116399366Y-113227781D01*
X116388330Y-113209368D01*
X116379151Y-113189962D01*
X116371919Y-113169750D01*
X116366703Y-113148926D01*
X116363553Y-113127691D01*
X116362500Y-113106250D01*
X116362500Y-112593750D01*
X116363553Y-112572309D01*
X116366703Y-112551074D01*
X116371919Y-112530250D01*
X116379151Y-112510038D01*
X116388330Y-112490632D01*
X116399366Y-112472219D01*
X116412154Y-112454976D01*
X116426570Y-112439070D01*
X116442476Y-112424654D01*
X116459719Y-112411866D01*
X116478132Y-112400830D01*
X116497538Y-112391651D01*
X116517750Y-112384419D01*
X116538574Y-112379203D01*
X116559809Y-112376053D01*
X116581250Y-112375000D01*
X117018750Y-112375000D01*
X117040191Y-112376053D01*
X117040191Y-112376053D01*
G37*
D14*
X116800000Y-112850000D03*
D13*
G36*
X115465191Y-112376053D02*
X115486426Y-112379203D01*
X115507250Y-112384419D01*
X115527462Y-112391651D01*
X115546868Y-112400830D01*
X115565281Y-112411866D01*
X115582524Y-112424654D01*
X115598430Y-112439070D01*
X115612846Y-112454976D01*
X115625634Y-112472219D01*
X115636670Y-112490632D01*
X115645849Y-112510038D01*
X115653081Y-112530250D01*
X115658297Y-112551074D01*
X115661447Y-112572309D01*
X115662500Y-112593750D01*
X115662500Y-113106250D01*
X115661447Y-113127691D01*
X115658297Y-113148926D01*
X115653081Y-113169750D01*
X115645849Y-113189962D01*
X115636670Y-113209368D01*
X115625634Y-113227781D01*
X115612846Y-113245024D01*
X115598430Y-113260930D01*
X115582524Y-113275346D01*
X115565281Y-113288134D01*
X115546868Y-113299170D01*
X115527462Y-113308349D01*
X115507250Y-113315581D01*
X115486426Y-113320797D01*
X115465191Y-113323947D01*
X115443750Y-113325000D01*
X115006250Y-113325000D01*
X114984809Y-113323947D01*
X114963574Y-113320797D01*
X114942750Y-113315581D01*
X114922538Y-113308349D01*
X114903132Y-113299170D01*
X114884719Y-113288134D01*
X114867476Y-113275346D01*
X114851570Y-113260930D01*
X114837154Y-113245024D01*
X114824366Y-113227781D01*
X114813330Y-113209368D01*
X114804151Y-113189962D01*
X114796919Y-113169750D01*
X114791703Y-113148926D01*
X114788553Y-113127691D01*
X114787500Y-113106250D01*
X114787500Y-112593750D01*
X114788553Y-112572309D01*
X114791703Y-112551074D01*
X114796919Y-112530250D01*
X114804151Y-112510038D01*
X114813330Y-112490632D01*
X114824366Y-112472219D01*
X114837154Y-112454976D01*
X114851570Y-112439070D01*
X114867476Y-112424654D01*
X114884719Y-112411866D01*
X114903132Y-112400830D01*
X114922538Y-112391651D01*
X114942750Y-112384419D01*
X114963574Y-112379203D01*
X114984809Y-112376053D01*
X115006250Y-112375000D01*
X115443750Y-112375000D01*
X115465191Y-112376053D01*
X115465191Y-112376053D01*
G37*
D14*
X115225000Y-112850000D03*
G04 #@! TD*
D13*
G04 #@! TO.C,C1*
G36*
X112142642Y-110801174D02*
X112166303Y-110804684D01*
X112189507Y-110810496D01*
X112212029Y-110818554D01*
X112233653Y-110828782D01*
X112254170Y-110841079D01*
X112273383Y-110855329D01*
X112291107Y-110871393D01*
X112307171Y-110889117D01*
X112321421Y-110908330D01*
X112333718Y-110928847D01*
X112343946Y-110950471D01*
X112352004Y-110972993D01*
X112357816Y-110996197D01*
X112361326Y-111019858D01*
X112362500Y-111043750D01*
X112362500Y-111956250D01*
X112361326Y-111980142D01*
X112357816Y-112003803D01*
X112352004Y-112027007D01*
X112343946Y-112049529D01*
X112333718Y-112071153D01*
X112321421Y-112091670D01*
X112307171Y-112110883D01*
X112291107Y-112128607D01*
X112273383Y-112144671D01*
X112254170Y-112158921D01*
X112233653Y-112171218D01*
X112212029Y-112181446D01*
X112189507Y-112189504D01*
X112166303Y-112195316D01*
X112142642Y-112198826D01*
X112118750Y-112200000D01*
X111631250Y-112200000D01*
X111607358Y-112198826D01*
X111583697Y-112195316D01*
X111560493Y-112189504D01*
X111537971Y-112181446D01*
X111516347Y-112171218D01*
X111495830Y-112158921D01*
X111476617Y-112144671D01*
X111458893Y-112128607D01*
X111442829Y-112110883D01*
X111428579Y-112091670D01*
X111416282Y-112071153D01*
X111406054Y-112049529D01*
X111397996Y-112027007D01*
X111392184Y-112003803D01*
X111388674Y-111980142D01*
X111387500Y-111956250D01*
X111387500Y-111043750D01*
X111388674Y-111019858D01*
X111392184Y-110996197D01*
X111397996Y-110972993D01*
X111406054Y-110950471D01*
X111416282Y-110928847D01*
X111428579Y-110908330D01*
X111442829Y-110889117D01*
X111458893Y-110871393D01*
X111476617Y-110855329D01*
X111495830Y-110841079D01*
X111516347Y-110828782D01*
X111537971Y-110818554D01*
X111560493Y-110810496D01*
X111583697Y-110804684D01*
X111607358Y-110801174D01*
X111631250Y-110800000D01*
X112118750Y-110800000D01*
X112142642Y-110801174D01*
X112142642Y-110801174D01*
G37*
D18*
X111875000Y-111500000D03*
D13*
G36*
X110267642Y-110801174D02*
X110291303Y-110804684D01*
X110314507Y-110810496D01*
X110337029Y-110818554D01*
X110358653Y-110828782D01*
X110379170Y-110841079D01*
X110398383Y-110855329D01*
X110416107Y-110871393D01*
X110432171Y-110889117D01*
X110446421Y-110908330D01*
X110458718Y-110928847D01*
X110468946Y-110950471D01*
X110477004Y-110972993D01*
X110482816Y-110996197D01*
X110486326Y-111019858D01*
X110487500Y-111043750D01*
X110487500Y-111956250D01*
X110486326Y-111980142D01*
X110482816Y-112003803D01*
X110477004Y-112027007D01*
X110468946Y-112049529D01*
X110458718Y-112071153D01*
X110446421Y-112091670D01*
X110432171Y-112110883D01*
X110416107Y-112128607D01*
X110398383Y-112144671D01*
X110379170Y-112158921D01*
X110358653Y-112171218D01*
X110337029Y-112181446D01*
X110314507Y-112189504D01*
X110291303Y-112195316D01*
X110267642Y-112198826D01*
X110243750Y-112200000D01*
X109756250Y-112200000D01*
X109732358Y-112198826D01*
X109708697Y-112195316D01*
X109685493Y-112189504D01*
X109662971Y-112181446D01*
X109641347Y-112171218D01*
X109620830Y-112158921D01*
X109601617Y-112144671D01*
X109583893Y-112128607D01*
X109567829Y-112110883D01*
X109553579Y-112091670D01*
X109541282Y-112071153D01*
X109531054Y-112049529D01*
X109522996Y-112027007D01*
X109517184Y-112003803D01*
X109513674Y-111980142D01*
X109512500Y-111956250D01*
X109512500Y-111043750D01*
X109513674Y-111019858D01*
X109517184Y-110996197D01*
X109522996Y-110972993D01*
X109531054Y-110950471D01*
X109541282Y-110928847D01*
X109553579Y-110908330D01*
X109567829Y-110889117D01*
X109583893Y-110871393D01*
X109601617Y-110855329D01*
X109620830Y-110841079D01*
X109641347Y-110828782D01*
X109662971Y-110818554D01*
X109685493Y-110810496D01*
X109708697Y-110804684D01*
X109732358Y-110801174D01*
X109756250Y-110800000D01*
X110243750Y-110800000D01*
X110267642Y-110801174D01*
X110267642Y-110801174D01*
G37*
D18*
X110000000Y-111500000D03*
G04 #@! TD*
D13*
G04 #@! TO.C,R1*
G36*
X125477691Y-113751053D02*
X125498926Y-113754203D01*
X125519750Y-113759419D01*
X125539962Y-113766651D01*
X125559368Y-113775830D01*
X125577781Y-113786866D01*
X125595024Y-113799654D01*
X125610930Y-113814070D01*
X125625346Y-113829976D01*
X125638134Y-113847219D01*
X125649170Y-113865632D01*
X125658349Y-113885038D01*
X125665581Y-113905250D01*
X125670797Y-113926074D01*
X125673947Y-113947309D01*
X125675000Y-113968750D01*
X125675000Y-114406250D01*
X125673947Y-114427691D01*
X125670797Y-114448926D01*
X125665581Y-114469750D01*
X125658349Y-114489962D01*
X125649170Y-114509368D01*
X125638134Y-114527781D01*
X125625346Y-114545024D01*
X125610930Y-114560930D01*
X125595024Y-114575346D01*
X125577781Y-114588134D01*
X125559368Y-114599170D01*
X125539962Y-114608349D01*
X125519750Y-114615581D01*
X125498926Y-114620797D01*
X125477691Y-114623947D01*
X125456250Y-114625000D01*
X124943750Y-114625000D01*
X124922309Y-114623947D01*
X124901074Y-114620797D01*
X124880250Y-114615581D01*
X124860038Y-114608349D01*
X124840632Y-114599170D01*
X124822219Y-114588134D01*
X124804976Y-114575346D01*
X124789070Y-114560930D01*
X124774654Y-114545024D01*
X124761866Y-114527781D01*
X124750830Y-114509368D01*
X124741651Y-114489962D01*
X124734419Y-114469750D01*
X124729203Y-114448926D01*
X124726053Y-114427691D01*
X124725000Y-114406250D01*
X124725000Y-113968750D01*
X124726053Y-113947309D01*
X124729203Y-113926074D01*
X124734419Y-113905250D01*
X124741651Y-113885038D01*
X124750830Y-113865632D01*
X124761866Y-113847219D01*
X124774654Y-113829976D01*
X124789070Y-113814070D01*
X124804976Y-113799654D01*
X124822219Y-113786866D01*
X124840632Y-113775830D01*
X124860038Y-113766651D01*
X124880250Y-113759419D01*
X124901074Y-113754203D01*
X124922309Y-113751053D01*
X124943750Y-113750000D01*
X125456250Y-113750000D01*
X125477691Y-113751053D01*
X125477691Y-113751053D01*
G37*
D14*
X125200000Y-114187500D03*
D13*
G36*
X125477691Y-112176053D02*
X125498926Y-112179203D01*
X125519750Y-112184419D01*
X125539962Y-112191651D01*
X125559368Y-112200830D01*
X125577781Y-112211866D01*
X125595024Y-112224654D01*
X125610930Y-112239070D01*
X125625346Y-112254976D01*
X125638134Y-112272219D01*
X125649170Y-112290632D01*
X125658349Y-112310038D01*
X125665581Y-112330250D01*
X125670797Y-112351074D01*
X125673947Y-112372309D01*
X125675000Y-112393750D01*
X125675000Y-112831250D01*
X125673947Y-112852691D01*
X125670797Y-112873926D01*
X125665581Y-112894750D01*
X125658349Y-112914962D01*
X125649170Y-112934368D01*
X125638134Y-112952781D01*
X125625346Y-112970024D01*
X125610930Y-112985930D01*
X125595024Y-113000346D01*
X125577781Y-113013134D01*
X125559368Y-113024170D01*
X125539962Y-113033349D01*
X125519750Y-113040581D01*
X125498926Y-113045797D01*
X125477691Y-113048947D01*
X125456250Y-113050000D01*
X124943750Y-113050000D01*
X124922309Y-113048947D01*
X124901074Y-113045797D01*
X124880250Y-113040581D01*
X124860038Y-113033349D01*
X124840632Y-113024170D01*
X124822219Y-113013134D01*
X124804976Y-113000346D01*
X124789070Y-112985930D01*
X124774654Y-112970024D01*
X124761866Y-112952781D01*
X124750830Y-112934368D01*
X124741651Y-112914962D01*
X124734419Y-112894750D01*
X124729203Y-112873926D01*
X124726053Y-112852691D01*
X124725000Y-112831250D01*
X124725000Y-112393750D01*
X124726053Y-112372309D01*
X124729203Y-112351074D01*
X124734419Y-112330250D01*
X124741651Y-112310038D01*
X124750830Y-112290632D01*
X124761866Y-112272219D01*
X124774654Y-112254976D01*
X124789070Y-112239070D01*
X124804976Y-112224654D01*
X124822219Y-112211866D01*
X124840632Y-112200830D01*
X124860038Y-112191651D01*
X124880250Y-112184419D01*
X124901074Y-112179203D01*
X124922309Y-112176053D01*
X124943750Y-112175000D01*
X125456250Y-112175000D01*
X125477691Y-112176053D01*
X125477691Y-112176053D01*
G37*
D14*
X125200000Y-112612500D03*
G04 #@! TD*
D13*
G04 #@! TO.C,R2*
G36*
X124527691Y-121026053D02*
X124548926Y-121029203D01*
X124569750Y-121034419D01*
X124589962Y-121041651D01*
X124609368Y-121050830D01*
X124627781Y-121061866D01*
X124645024Y-121074654D01*
X124660930Y-121089070D01*
X124675346Y-121104976D01*
X124688134Y-121122219D01*
X124699170Y-121140632D01*
X124708349Y-121160038D01*
X124715581Y-121180250D01*
X124720797Y-121201074D01*
X124723947Y-121222309D01*
X124725000Y-121243750D01*
X124725000Y-121756250D01*
X124723947Y-121777691D01*
X124720797Y-121798926D01*
X124715581Y-121819750D01*
X124708349Y-121839962D01*
X124699170Y-121859368D01*
X124688134Y-121877781D01*
X124675346Y-121895024D01*
X124660930Y-121910930D01*
X124645024Y-121925346D01*
X124627781Y-121938134D01*
X124609368Y-121949170D01*
X124589962Y-121958349D01*
X124569750Y-121965581D01*
X124548926Y-121970797D01*
X124527691Y-121973947D01*
X124506250Y-121975000D01*
X124068750Y-121975000D01*
X124047309Y-121973947D01*
X124026074Y-121970797D01*
X124005250Y-121965581D01*
X123985038Y-121958349D01*
X123965632Y-121949170D01*
X123947219Y-121938134D01*
X123929976Y-121925346D01*
X123914070Y-121910930D01*
X123899654Y-121895024D01*
X123886866Y-121877781D01*
X123875830Y-121859368D01*
X123866651Y-121839962D01*
X123859419Y-121819750D01*
X123854203Y-121798926D01*
X123851053Y-121777691D01*
X123850000Y-121756250D01*
X123850000Y-121243750D01*
X123851053Y-121222309D01*
X123854203Y-121201074D01*
X123859419Y-121180250D01*
X123866651Y-121160038D01*
X123875830Y-121140632D01*
X123886866Y-121122219D01*
X123899654Y-121104976D01*
X123914070Y-121089070D01*
X123929976Y-121074654D01*
X123947219Y-121061866D01*
X123965632Y-121050830D01*
X123985038Y-121041651D01*
X124005250Y-121034419D01*
X124026074Y-121029203D01*
X124047309Y-121026053D01*
X124068750Y-121025000D01*
X124506250Y-121025000D01*
X124527691Y-121026053D01*
X124527691Y-121026053D01*
G37*
D14*
X124287500Y-121500000D03*
D13*
G36*
X122952691Y-121026053D02*
X122973926Y-121029203D01*
X122994750Y-121034419D01*
X123014962Y-121041651D01*
X123034368Y-121050830D01*
X123052781Y-121061866D01*
X123070024Y-121074654D01*
X123085930Y-121089070D01*
X123100346Y-121104976D01*
X123113134Y-121122219D01*
X123124170Y-121140632D01*
X123133349Y-121160038D01*
X123140581Y-121180250D01*
X123145797Y-121201074D01*
X123148947Y-121222309D01*
X123150000Y-121243750D01*
X123150000Y-121756250D01*
X123148947Y-121777691D01*
X123145797Y-121798926D01*
X123140581Y-121819750D01*
X123133349Y-121839962D01*
X123124170Y-121859368D01*
X123113134Y-121877781D01*
X123100346Y-121895024D01*
X123085930Y-121910930D01*
X123070024Y-121925346D01*
X123052781Y-121938134D01*
X123034368Y-121949170D01*
X123014962Y-121958349D01*
X122994750Y-121965581D01*
X122973926Y-121970797D01*
X122952691Y-121973947D01*
X122931250Y-121975000D01*
X122493750Y-121975000D01*
X122472309Y-121973947D01*
X122451074Y-121970797D01*
X122430250Y-121965581D01*
X122410038Y-121958349D01*
X122390632Y-121949170D01*
X122372219Y-121938134D01*
X122354976Y-121925346D01*
X122339070Y-121910930D01*
X122324654Y-121895024D01*
X122311866Y-121877781D01*
X122300830Y-121859368D01*
X122291651Y-121839962D01*
X122284419Y-121819750D01*
X122279203Y-121798926D01*
X122276053Y-121777691D01*
X122275000Y-121756250D01*
X122275000Y-121243750D01*
X122276053Y-121222309D01*
X122279203Y-121201074D01*
X122284419Y-121180250D01*
X122291651Y-121160038D01*
X122300830Y-121140632D01*
X122311866Y-121122219D01*
X122324654Y-121104976D01*
X122339070Y-121089070D01*
X122354976Y-121074654D01*
X122372219Y-121061866D01*
X122390632Y-121050830D01*
X122410038Y-121041651D01*
X122430250Y-121034419D01*
X122451074Y-121029203D01*
X122472309Y-121026053D01*
X122493750Y-121025000D01*
X122931250Y-121025000D01*
X122952691Y-121026053D01*
X122952691Y-121026053D01*
G37*
D14*
X122712500Y-121500000D03*
G04 #@! TD*
D13*
G04 #@! TO.C,R3*
G36*
X149577691Y-111976053D02*
X149598926Y-111979203D01*
X149619750Y-111984419D01*
X149639962Y-111991651D01*
X149659368Y-112000830D01*
X149677781Y-112011866D01*
X149695024Y-112024654D01*
X149710930Y-112039070D01*
X149725346Y-112054976D01*
X149738134Y-112072219D01*
X149749170Y-112090632D01*
X149758349Y-112110038D01*
X149765581Y-112130250D01*
X149770797Y-112151074D01*
X149773947Y-112172309D01*
X149775000Y-112193750D01*
X149775000Y-112706250D01*
X149773947Y-112727691D01*
X149770797Y-112748926D01*
X149765581Y-112769750D01*
X149758349Y-112789962D01*
X149749170Y-112809368D01*
X149738134Y-112827781D01*
X149725346Y-112845024D01*
X149710930Y-112860930D01*
X149695024Y-112875346D01*
X149677781Y-112888134D01*
X149659368Y-112899170D01*
X149639962Y-112908349D01*
X149619750Y-112915581D01*
X149598926Y-112920797D01*
X149577691Y-112923947D01*
X149556250Y-112925000D01*
X149118750Y-112925000D01*
X149097309Y-112923947D01*
X149076074Y-112920797D01*
X149055250Y-112915581D01*
X149035038Y-112908349D01*
X149015632Y-112899170D01*
X148997219Y-112888134D01*
X148979976Y-112875346D01*
X148964070Y-112860930D01*
X148949654Y-112845024D01*
X148936866Y-112827781D01*
X148925830Y-112809368D01*
X148916651Y-112789962D01*
X148909419Y-112769750D01*
X148904203Y-112748926D01*
X148901053Y-112727691D01*
X148900000Y-112706250D01*
X148900000Y-112193750D01*
X148901053Y-112172309D01*
X148904203Y-112151074D01*
X148909419Y-112130250D01*
X148916651Y-112110038D01*
X148925830Y-112090632D01*
X148936866Y-112072219D01*
X148949654Y-112054976D01*
X148964070Y-112039070D01*
X148979976Y-112024654D01*
X148997219Y-112011866D01*
X149015632Y-112000830D01*
X149035038Y-111991651D01*
X149055250Y-111984419D01*
X149076074Y-111979203D01*
X149097309Y-111976053D01*
X149118750Y-111975000D01*
X149556250Y-111975000D01*
X149577691Y-111976053D01*
X149577691Y-111976053D01*
G37*
D14*
X149337500Y-112450000D03*
D13*
G36*
X148002691Y-111976053D02*
X148023926Y-111979203D01*
X148044750Y-111984419D01*
X148064962Y-111991651D01*
X148084368Y-112000830D01*
X148102781Y-112011866D01*
X148120024Y-112024654D01*
X148135930Y-112039070D01*
X148150346Y-112054976D01*
X148163134Y-112072219D01*
X148174170Y-112090632D01*
X148183349Y-112110038D01*
X148190581Y-112130250D01*
X148195797Y-112151074D01*
X148198947Y-112172309D01*
X148200000Y-112193750D01*
X148200000Y-112706250D01*
X148198947Y-112727691D01*
X148195797Y-112748926D01*
X148190581Y-112769750D01*
X148183349Y-112789962D01*
X148174170Y-112809368D01*
X148163134Y-112827781D01*
X148150346Y-112845024D01*
X148135930Y-112860930D01*
X148120024Y-112875346D01*
X148102781Y-112888134D01*
X148084368Y-112899170D01*
X148064962Y-112908349D01*
X148044750Y-112915581D01*
X148023926Y-112920797D01*
X148002691Y-112923947D01*
X147981250Y-112925000D01*
X147543750Y-112925000D01*
X147522309Y-112923947D01*
X147501074Y-112920797D01*
X147480250Y-112915581D01*
X147460038Y-112908349D01*
X147440632Y-112899170D01*
X147422219Y-112888134D01*
X147404976Y-112875346D01*
X147389070Y-112860930D01*
X147374654Y-112845024D01*
X147361866Y-112827781D01*
X147350830Y-112809368D01*
X147341651Y-112789962D01*
X147334419Y-112769750D01*
X147329203Y-112748926D01*
X147326053Y-112727691D01*
X147325000Y-112706250D01*
X147325000Y-112193750D01*
X147326053Y-112172309D01*
X147329203Y-112151074D01*
X147334419Y-112130250D01*
X147341651Y-112110038D01*
X147350830Y-112090632D01*
X147361866Y-112072219D01*
X147374654Y-112054976D01*
X147389070Y-112039070D01*
X147404976Y-112024654D01*
X147422219Y-112011866D01*
X147440632Y-112000830D01*
X147460038Y-111991651D01*
X147480250Y-111984419D01*
X147501074Y-111979203D01*
X147522309Y-111976053D01*
X147543750Y-111975000D01*
X147981250Y-111975000D01*
X148002691Y-111976053D01*
X148002691Y-111976053D01*
G37*
D14*
X147762500Y-112450000D03*
G04 #@! TD*
D13*
G04 #@! TO.C,R4*
G36*
X151452691Y-114276053D02*
X151473926Y-114279203D01*
X151494750Y-114284419D01*
X151514962Y-114291651D01*
X151534368Y-114300830D01*
X151552781Y-114311866D01*
X151570024Y-114324654D01*
X151585930Y-114339070D01*
X151600346Y-114354976D01*
X151613134Y-114372219D01*
X151624170Y-114390632D01*
X151633349Y-114410038D01*
X151640581Y-114430250D01*
X151645797Y-114451074D01*
X151648947Y-114472309D01*
X151650000Y-114493750D01*
X151650000Y-115006250D01*
X151648947Y-115027691D01*
X151645797Y-115048926D01*
X151640581Y-115069750D01*
X151633349Y-115089962D01*
X151624170Y-115109368D01*
X151613134Y-115127781D01*
X151600346Y-115145024D01*
X151585930Y-115160930D01*
X151570024Y-115175346D01*
X151552781Y-115188134D01*
X151534368Y-115199170D01*
X151514962Y-115208349D01*
X151494750Y-115215581D01*
X151473926Y-115220797D01*
X151452691Y-115223947D01*
X151431250Y-115225000D01*
X150993750Y-115225000D01*
X150972309Y-115223947D01*
X150951074Y-115220797D01*
X150930250Y-115215581D01*
X150910038Y-115208349D01*
X150890632Y-115199170D01*
X150872219Y-115188134D01*
X150854976Y-115175346D01*
X150839070Y-115160930D01*
X150824654Y-115145024D01*
X150811866Y-115127781D01*
X150800830Y-115109368D01*
X150791651Y-115089962D01*
X150784419Y-115069750D01*
X150779203Y-115048926D01*
X150776053Y-115027691D01*
X150775000Y-115006250D01*
X150775000Y-114493750D01*
X150776053Y-114472309D01*
X150779203Y-114451074D01*
X150784419Y-114430250D01*
X150791651Y-114410038D01*
X150800830Y-114390632D01*
X150811866Y-114372219D01*
X150824654Y-114354976D01*
X150839070Y-114339070D01*
X150854976Y-114324654D01*
X150872219Y-114311866D01*
X150890632Y-114300830D01*
X150910038Y-114291651D01*
X150930250Y-114284419D01*
X150951074Y-114279203D01*
X150972309Y-114276053D01*
X150993750Y-114275000D01*
X151431250Y-114275000D01*
X151452691Y-114276053D01*
X151452691Y-114276053D01*
G37*
D14*
X151212500Y-114750000D03*
D13*
G36*
X153027691Y-114276053D02*
X153048926Y-114279203D01*
X153069750Y-114284419D01*
X153089962Y-114291651D01*
X153109368Y-114300830D01*
X153127781Y-114311866D01*
X153145024Y-114324654D01*
X153160930Y-114339070D01*
X153175346Y-114354976D01*
X153188134Y-114372219D01*
X153199170Y-114390632D01*
X153208349Y-114410038D01*
X153215581Y-114430250D01*
X153220797Y-114451074D01*
X153223947Y-114472309D01*
X153225000Y-114493750D01*
X153225000Y-115006250D01*
X153223947Y-115027691D01*
X153220797Y-115048926D01*
X153215581Y-115069750D01*
X153208349Y-115089962D01*
X153199170Y-115109368D01*
X153188134Y-115127781D01*
X153175346Y-115145024D01*
X153160930Y-115160930D01*
X153145024Y-115175346D01*
X153127781Y-115188134D01*
X153109368Y-115199170D01*
X153089962Y-115208349D01*
X153069750Y-115215581D01*
X153048926Y-115220797D01*
X153027691Y-115223947D01*
X153006250Y-115225000D01*
X152568750Y-115225000D01*
X152547309Y-115223947D01*
X152526074Y-115220797D01*
X152505250Y-115215581D01*
X152485038Y-115208349D01*
X152465632Y-115199170D01*
X152447219Y-115188134D01*
X152429976Y-115175346D01*
X152414070Y-115160930D01*
X152399654Y-115145024D01*
X152386866Y-115127781D01*
X152375830Y-115109368D01*
X152366651Y-115089962D01*
X152359419Y-115069750D01*
X152354203Y-115048926D01*
X152351053Y-115027691D01*
X152350000Y-115006250D01*
X152350000Y-114493750D01*
X152351053Y-114472309D01*
X152354203Y-114451074D01*
X152359419Y-114430250D01*
X152366651Y-114410038D01*
X152375830Y-114390632D01*
X152386866Y-114372219D01*
X152399654Y-114354976D01*
X152414070Y-114339070D01*
X152429976Y-114324654D01*
X152447219Y-114311866D01*
X152465632Y-114300830D01*
X152485038Y-114291651D01*
X152505250Y-114284419D01*
X152526074Y-114279203D01*
X152547309Y-114276053D01*
X152568750Y-114275000D01*
X153006250Y-114275000D01*
X153027691Y-114276053D01*
X153027691Y-114276053D01*
G37*
D14*
X152787500Y-114750000D03*
G04 #@! TD*
D13*
G04 #@! TO.C,R5*
G36*
X153027691Y-112976053D02*
X153048926Y-112979203D01*
X153069750Y-112984419D01*
X153089962Y-112991651D01*
X153109368Y-113000830D01*
X153127781Y-113011866D01*
X153145024Y-113024654D01*
X153160930Y-113039070D01*
X153175346Y-113054976D01*
X153188134Y-113072219D01*
X153199170Y-113090632D01*
X153208349Y-113110038D01*
X153215581Y-113130250D01*
X153220797Y-113151074D01*
X153223947Y-113172309D01*
X153225000Y-113193750D01*
X153225000Y-113706250D01*
X153223947Y-113727691D01*
X153220797Y-113748926D01*
X153215581Y-113769750D01*
X153208349Y-113789962D01*
X153199170Y-113809368D01*
X153188134Y-113827781D01*
X153175346Y-113845024D01*
X153160930Y-113860930D01*
X153145024Y-113875346D01*
X153127781Y-113888134D01*
X153109368Y-113899170D01*
X153089962Y-113908349D01*
X153069750Y-113915581D01*
X153048926Y-113920797D01*
X153027691Y-113923947D01*
X153006250Y-113925000D01*
X152568750Y-113925000D01*
X152547309Y-113923947D01*
X152526074Y-113920797D01*
X152505250Y-113915581D01*
X152485038Y-113908349D01*
X152465632Y-113899170D01*
X152447219Y-113888134D01*
X152429976Y-113875346D01*
X152414070Y-113860930D01*
X152399654Y-113845024D01*
X152386866Y-113827781D01*
X152375830Y-113809368D01*
X152366651Y-113789962D01*
X152359419Y-113769750D01*
X152354203Y-113748926D01*
X152351053Y-113727691D01*
X152350000Y-113706250D01*
X152350000Y-113193750D01*
X152351053Y-113172309D01*
X152354203Y-113151074D01*
X152359419Y-113130250D01*
X152366651Y-113110038D01*
X152375830Y-113090632D01*
X152386866Y-113072219D01*
X152399654Y-113054976D01*
X152414070Y-113039070D01*
X152429976Y-113024654D01*
X152447219Y-113011866D01*
X152465632Y-113000830D01*
X152485038Y-112991651D01*
X152505250Y-112984419D01*
X152526074Y-112979203D01*
X152547309Y-112976053D01*
X152568750Y-112975000D01*
X153006250Y-112975000D01*
X153027691Y-112976053D01*
X153027691Y-112976053D01*
G37*
D14*
X152787500Y-113450000D03*
D13*
G36*
X151452691Y-112976053D02*
X151473926Y-112979203D01*
X151494750Y-112984419D01*
X151514962Y-112991651D01*
X151534368Y-113000830D01*
X151552781Y-113011866D01*
X151570024Y-113024654D01*
X151585930Y-113039070D01*
X151600346Y-113054976D01*
X151613134Y-113072219D01*
X151624170Y-113090632D01*
X151633349Y-113110038D01*
X151640581Y-113130250D01*
X151645797Y-113151074D01*
X151648947Y-113172309D01*
X151650000Y-113193750D01*
X151650000Y-113706250D01*
X151648947Y-113727691D01*
X151645797Y-113748926D01*
X151640581Y-113769750D01*
X151633349Y-113789962D01*
X151624170Y-113809368D01*
X151613134Y-113827781D01*
X151600346Y-113845024D01*
X151585930Y-113860930D01*
X151570024Y-113875346D01*
X151552781Y-113888134D01*
X151534368Y-113899170D01*
X151514962Y-113908349D01*
X151494750Y-113915581D01*
X151473926Y-113920797D01*
X151452691Y-113923947D01*
X151431250Y-113925000D01*
X150993750Y-113925000D01*
X150972309Y-113923947D01*
X150951074Y-113920797D01*
X150930250Y-113915581D01*
X150910038Y-113908349D01*
X150890632Y-113899170D01*
X150872219Y-113888134D01*
X150854976Y-113875346D01*
X150839070Y-113860930D01*
X150824654Y-113845024D01*
X150811866Y-113827781D01*
X150800830Y-113809368D01*
X150791651Y-113789962D01*
X150784419Y-113769750D01*
X150779203Y-113748926D01*
X150776053Y-113727691D01*
X150775000Y-113706250D01*
X150775000Y-113193750D01*
X150776053Y-113172309D01*
X150779203Y-113151074D01*
X150784419Y-113130250D01*
X150791651Y-113110038D01*
X150800830Y-113090632D01*
X150811866Y-113072219D01*
X150824654Y-113054976D01*
X150839070Y-113039070D01*
X150854976Y-113024654D01*
X150872219Y-113011866D01*
X150890632Y-113000830D01*
X150910038Y-112991651D01*
X150930250Y-112984419D01*
X150951074Y-112979203D01*
X150972309Y-112976053D01*
X150993750Y-112975000D01*
X151431250Y-112975000D01*
X151452691Y-112976053D01*
X151452691Y-112976053D01*
G37*
D14*
X151212500Y-113450000D03*
G04 #@! TD*
M02*
